<?xml version="1.0" ?><svg width="32px" height="32px" viewBox="0 0 32 32" xmlns="http://www.w3.org/2000/svg"><defs><style>.cls-1{fill:none;stroke:#000;stroke-linecap:round;stroke-linejoin:round;}</style></defs><g id="ic-social-media-android"><path class="cls-1" d="M13.73,4.31h4.76A5.61,5.61,0,0,1,24.1,9.92V24.61a1,1,0,0,1-1,1h-14a1,1,0,0,1-1-1V9.92a5.61,5.61,0,0,1,5.61-5.61Z"/><line class="cls-1" x1="8.12" x2="24.1" y1="11.77" y2="11.77"/><line class="cls-1" x1="21.41" x2="23.51" y1="5.13" y2="3.03"/><line class="cls-1" x1="10.87" x2="8.7" y1="5.09" y2="2.92"/><line class="cls-1" x1="27.31" x2="27.31" y1="13.11" y2="21.09"/><line class="cls-1" x1="4.69" x2="4.69" y1="13.11" y2="21.09"/><line class="cls-1" x1="20.66" x2="20.66" y1="26.42" y2="29.08"/><line class="cls-1" x1="11.34" x2="11.34" y1="26.42" y2="29.08"/></g></svg>