<?xml version="1.0" encoding="iso-8859-1"?>
<!-- Generator: Adobe Illustrator 19.0.0, SVG Export Plug-In . SVG Version: 6.00 Build 0)  -->
<svg version="1.1" id="Layer_1" xmlns="http://www.w3.org/2000/svg" xmlns:xlink="http://www.w3.org/1999/xlink" x="0px" y="0px"
	 viewBox="0 0 304.684 304.684" fill="#0f5499" style="enable-background:new 0 0 304.684 304.684;" xml:space="preserve">
<g>
	<g>
		<g>
			<path d="M268.485,62.68L175.361,1.444C173.925,0.504,172.257,0,170.537,0c-2.98,0-5.728,1.48-7.36,3.96L79.873,130.652
				l1.344,7.092c4.168,2.94,5.744,8.476,3.748,13.16l2.884,4.64l-5.364-1.044c-2.036,1.96-4.72,3.04-7.564,3.04
				c-1.996,0-3.956-0.552-5.664-1.6l-7.044,1.576L33.685,200.9c-1.288,1.96-1.736,4.304-1.26,6.608
				c0.476,2.304,1.816,4.284,3.776,5.568l20.996,13.808l-8.52,15.82c-1.62,3.004-0.492,6.776,2.516,8.396l98.132,52.844
				c0.912,0.492,1.916,0.74,2.928,0.74c0.6,0,1.204-0.088,1.8-0.264c1.588-0.48,2.896-1.54,3.672-2.992l24.708-45.88l-1.42-3.676
				c-0.66-0.232-1.304-0.496-1.936-0.836c-5.588-3.008-8.304-9.384-6.604-15.496l-2.688-3.284c-0.224,0.024-0.452-0.024-0.644-0.124
				c-0.44-0.24-0.912-0.296-1.38-0.268l1.672-2.544c0.216,0.284,0.488,0.532,0.82,0.712c0.176,0.096,0.32,0.236,0.436,0.428
				l4.24,0.256c4.076-5.1,11.208-6.556,16.948-3.464c0.628,0.34,1.204,0.732,1.76,1.156l3.856-0.84L269.473,93.9
				c1.616-3.008,0.488-6.776-2.524-8.396l-2.18-1.176l6.228-9.472C273.665,70.808,272.537,65.344,268.485,62.68z M39.049,208.74
				c-1.656-1.088-2.12-3.336-1.028-4.992l28.524-43.384c2.612,1.596,5.508,2.36,8.372,2.36c4.092,0,8.124-1.56,11.164-4.488
				c0.284,0.636,0.74,1.204,1.364,1.616c0.64,0.42,1.36,0.62,2.072,0.62c0.976,0,1.94-0.376,2.66-1.084
				c-0.632,1.628-0.072,3.528,1.444,4.524c0.64,0.42,1.36,0.62,2.072,0.62c0.976,0,1.94-0.376,2.66-1.084
				c-0.632,1.624-0.072,3.528,1.444,4.524c0.64,0.42,1.36,0.62,2.072,0.62c0.976,0,1.94-0.376,2.66-1.084
				c-0.632,1.628-0.072,3.528,1.444,4.524c0.64,0.42,1.36,0.62,2.072,0.62c0.976,0,1.94-0.38,2.66-1.088
				c-0.632,1.628-0.072,3.528,1.444,4.524c0.64,0.42,1.36,0.62,2.072,0.62c0.976,0,1.94-0.376,2.656-1.084
				c-0.632,1.628-0.068,3.528,1.448,4.524c0.64,0.42,1.356,0.62,2.072,0.62c0.976,0,1.94-0.38,2.656-1.088
				c-0.632,1.628-0.072,3.528,1.448,4.524c0.64,0.42,1.356,0.62,2.072,0.62c0.976,0,1.94-0.376,2.656-1.084
				c-0.632,1.628-0.072,3.528,1.448,4.524c0.64,0.42,1.356,0.62,2.072,0.62c0.976,0,1.94-0.376,2.656-1.084
				c-0.632,1.628-0.072,3.528,1.448,4.524c0.636,0.42,1.356,0.62,2.072,0.62c0.976,0,1.94-0.376,2.656-1.084
				c-0.632,1.628-0.072,3.528,1.448,4.524c0.636,0.42,1.356,0.62,2.068,0.62c0.976,0,1.94-0.376,2.66-1.084
				c-0.632,1.628-0.072,3.528,1.444,4.524c0.64,0.42,1.36,0.62,2.072,0.62c0.976,0,1.94-0.376,2.66-1.084
				c-0.632,1.628-0.072,3.528,1.444,4.524c0.624,0.412,1.324,0.604,2.02,0.612c-2.584,6.884-0.18,14.884,6.224,19.096
				c0.712,0.468,1.456,0.852,2.208,1.196l-28.628,43.54c-0.692,1.052-1.844,1.62-3.02,1.62c-0.68,0-1.364-0.188-1.972-0.588
				L39.049,208.74z M176.525,255.556l-23.376,43.412c-0.168,0.308-0.448,0.432-0.596,0.48c-0.152,0.044-0.448,0.096-0.768-0.076
				l-98.128-52.84c-0.48-0.256-0.672-0.884-0.412-1.368l8.304-15.416l67.772,44.564c1.436,0.944,3.104,1.444,4.824,1.444
				c2.976,0,5.728-1.48,7.36-3.96l23.996-36.492c0.212,0.568,0.596,1.076,1.172,1.384c0.084,0.048,0.168,0.088,0.256,0.132
				C165.949,244.384,169.657,251.812,176.525,255.556z M264.905,91.444l-70.648,131.192c-7.128-3.796-15.768-2.548-21.524,2.836
				c0-0.004-0.004-0.004-0.008-0.004c-1.104-0.608-2.432-0.268-3.204,0.672l-1.576-5.46c-0.608-0.276-1.084-0.532-1.5-0.808
				c-4.284-2.816-6.016-8.136-4.216-12.932l-3.08-4.516l5.404,0.808c2.048-2.152,4.932-3.384,7.916-3.384
				c2.12,0,4.18,0.62,5.964,1.792c0.416,0.272,0.84,0.612,1.332,1.06l7.824-0.992l74.32-113.02l2.584,1.392
				C264.977,90.332,265.165,90.964,264.905,91.444z M266.665,72.008l-83.408,126.848c-0.612-0.556-1.26-1.084-1.972-1.552
				c-2.724-1.788-5.784-2.648-8.816-2.648c-4.324,0-8.58,1.744-11.676,4.996c-0.288-0.576-0.712-1.092-1.288-1.472
				c-0.636-0.42-1.356-0.62-2.072-0.62c-0.976,0-1.936,0.376-2.656,1.084c0.632-1.628,0.072-3.528-1.448-4.524
				c-0.636-0.42-1.356-0.62-2.068-0.62c-0.976,0-1.94,0.376-2.66,1.084c0.632-1.624,0.072-3.528-1.444-4.524
				c-0.64-0.42-1.36-0.62-2.072-0.62c-0.976,0-1.94,0.376-2.66,1.084c0.632-1.628,0.072-3.528-1.444-4.524
				c-0.64-0.42-1.36-0.62-2.072-0.62c-0.976,0-1.94,0.376-2.66,1.084c0.632-1.624,0.072-3.528-1.444-4.524
				c-0.64-0.42-1.36-0.62-2.072-0.62c-0.976,0-1.94,0.376-2.66,1.084c0.632-1.628,0.072-3.528-1.444-4.524
				c-0.64-0.42-1.36-0.62-2.072-0.62c-0.976,0-1.94,0.38-2.66,1.084c0.632-1.624,0.072-3.528-1.444-4.524
				c-0.64-0.42-1.356-0.62-2.072-0.62c-0.976,0-1.94,0.376-2.656,1.084c0.632-1.628,0.068-3.528-1.448-4.524
				c-0.64-0.42-1.356-0.62-2.072-0.62c-0.976,0-1.94,0.38-2.656,1.088c0.632-1.628,0.072-3.528-1.448-4.524
				c-0.64-0.42-1.356-0.62-2.072-0.62c-0.976,0-1.94,0.376-2.656,1.084c0.632-1.628,0.072-3.528-1.448-4.524
				c-0.64-0.42-1.356-0.62-2.072-0.62c-0.976,0-1.94,0.38-2.656,1.088c0.632-1.628,0.072-3.528-1.448-4.524
				c-0.636-0.42-1.356-0.62-2.072-0.62c-0.976,0-1.936,0.376-2.656,1.084c0.632-1.628,0.072-3.528-1.448-4.524
				c-0.576-0.38-1.22-0.568-1.864-0.6c2.924-6.864,0.736-15.008-5.532-19.432L167.485,6.804c0.688-1.052,1.844-1.62,3.02-1.62
				c0.676,0,1.364,0.192,1.968,0.592l93.124,61.236C267.289,68.108,267.753,70.352,266.665,72.008z"/>
			<path d="M148.393,228.96l-0.52-2.516l-65.28-42.924c-0.836-0.556-1.968-0.32-2.516,0.516c-0.552,0.84-0.316,1.964,0.52,2.516
				l63.76,41.928l-14.972,22.776c-0.464,0.7-1.108,1.236-1.784,1.464c-0.296,0.1-0.848,0.228-1.292-0.048
				c-0.836-0.552-1.964-0.324-2.516,0.52c-0.556,0.836-0.32,1.964,0.52,2.516c0.768,0.508,1.676,0.768,2.628,0.768
				c0.608,0,1.232-0.108,1.844-0.32c1.436-0.5,2.728-1.532,3.628-2.904L148.393,228.96z"/>
			<path d="M110.257,242.112l-52.992-34.848c-0.704-0.464-0.82-2.008,0.08-3.384l13.176-20.028c0.552-0.836,0.32-1.96-0.52-2.516
				c-0.84-0.556-1.968-0.324-2.516,0.52l-13.172,20.028c-1.972,2.992-1.54,6.764,0.952,8.412l52.996,34.848
				c0.308,0.204,0.652,0.3,0.996,0.3c0.592,0,1.172-0.292,1.516-0.82C111.329,243.792,111.093,242.664,110.257,242.112z"/>
			<path d="M119.337,100.888c0.308,0.204,0.652,0.3,1,0.3c0.592,0,1.168-0.288,1.516-0.82l41.348-62.88
				c0.14,0.1,0.288,0.2,0.436,0.296c6.88,4.532,15.992,3.048,21.14-3.124l36.696,24.128c0.836,0.552,1.968,0.316,2.516-0.52
				c0.552-0.84,0.316-1.964-0.52-2.516L185.337,30.68l-2.516,0.52c-1.824,2.768-4.612,4.664-7.86,5.336
				c-3.24,0.66-6.556,0.04-9.328-1.784c-0.584-0.384-1.116-0.82-1.608-1.28l-2.752,0.336l-42.456,64.568
				C118.265,99.212,118.501,100.34,119.337,100.888z"/>
			<path d="M243.517,85.972c-5.716-3.764-7.312-11.472-3.552-17.192c0.556-0.836,0.32-1.964-0.516-2.516
				c-0.836-0.556-1.968-0.32-2.516,0.516c-4.86,7.392-2.804,17.364,4.588,22.224c0.136,0.088,0.268,0.172,0.404,0.256l-1.756,2.668
				c-0.104-0.116-0.2-0.24-0.336-0.332l-38.46-25.192c-0.832-0.544-1.96-0.32-2.516,0.528c-0.552,0.836-0.316,1.96,0.528,2.516
				l38.46,25.192c0.14,0.092,0.304,0.088,0.456,0.136l-47.288,71.912l-80.276-53.276c-0.84-0.56-1.964-0.328-2.52,0.508
				c-0.216,0.328-0.284,0.7-0.268,1.064c-0.048,0.056-0.108,0.088-0.148,0.152l-4.3,6.54l0.788,2.66
				c0.612,0.272,1.22,0.584,1.8,0.964c2.772,1.824,4.664,4.616,5.336,7.86s0.036,6.56-1.788,9.332
				c-0.364,0.56-0.78,1.064-1.212,1.54l0.348,2.74l42.452,27.916c0.308,0.204,0.652,0.3,1,0.3c0.592,0,1.168-0.292,1.516-0.82
				c0.556-0.836,0.32-1.964-0.516-2.516l-40.784-26.816c0.084-0.116,0.16-0.232,0.236-0.352c2.356-3.58,3.176-7.86,2.308-12.06
				c-0.868-4.196-3.32-7.804-6.896-10.156c-0.148-0.096-0.292-0.192-0.444-0.28l2.868-4.364l78.504,52.104l-2.648,4.028
				c-0.128-0.092-0.264-0.18-0.396-0.268c-6.028-3.972-14.012-3.412-19.42,1.356c-1.072,0.944-2.012,2.032-2.8,3.236
				c-0.552,0.84-0.312,1.964,0.528,2.516c0.308,0.2,0.648,0.296,0.992,0.296c0.592,0,1.172-0.292,1.52-0.82
				c0.608-0.928,1.332-1.768,2.164-2.496c4.18-3.684,10.364-4.116,15.024-1.048c0.572,0.372,1.088,0.792,1.568,1.24l2.752-0.336
				l4.172-6.348c0.344-0.128,0.66-0.324,0.88-0.652c0.22-0.336,0.288-0.716,0.268-1.092l52.444-79.752l-0.776-2.652
				C244.681,86.644,244.089,86.344,243.517,85.972z"/>
			<polygon points="130.249,233.24 126.989,230.196 126.553,234.632 122.653,236.792 126.737,238.576 127.585,242.956 
				130.545,239.62 134.973,240.168 132.713,236.324 134.601,232.28 			"/>
			<polygon points="120.081,222.732 115.729,223.692 112.469,220.648 112.033,225.084 108.129,227.244 112.217,229.028 
				113.065,233.404 116.025,230.072 120.449,230.62 118.193,226.772 			"/>
			<polygon points="101.209,214.144 97.949,211.1 97.513,215.536 93.609,217.696 97.697,219.48 98.545,223.86 101.505,220.524 
				105.929,221.072 103.673,217.224 105.561,213.184 			"/>
			<polygon points="86.685,204.596 83.429,201.552 82.993,205.988 79.089,208.148 83.177,209.932 84.025,214.312 86.985,210.976 
				91.409,211.524 89.153,207.68 91.041,203.636 			"/>
			<polygon points="68.473,196.44 64.573,198.6 68.657,200.384 69.505,204.764 72.465,201.428 76.893,201.976 74.633,198.128 
				76.525,194.088 72.169,195.048 68.909,192.004 			"/>
			<path d="M150.553,87.544c0.932-0.044,1.856-0.028,2.792,0.04c0.924,0.072,1.808,0.088,2.64,0.056
				c1.356-0.048,2.612-0.312,3.764-0.792c1.148-0.488,2.16-1.132,3.036-1.948c0.876-0.812,1.576-1.776,2.1-2.896
				c0.528-1.12,0.856-2.352,0.988-3.7c0.14-1.416-0.052-2.66-0.576-3.724c-0.52-1.068-1.256-1.956-2.196-2.66
				c-0.948-0.704-2.02-1.228-3.224-1.576c-1.208-0.348-2.432-0.492-3.68-0.444c-0.528,0.016-1.184,0.056-1.984,0.108
				c-0.788,0.06-1.544,0.212-2.256,0.452c-0.712,0.244-1.316,0.604-1.8,1.088c-0.492,0.48-0.696,1.132-0.624,1.96
				c0.088,0.972,0.388,1.636,0.912,1.984c0.516,0.348,1.132,0.54,1.844,0.576c0.716,0.036,1.46-0.02,2.236-0.164
				c0.776-0.14,1.456-0.204,2.032-0.184c1.212,0,2.132,0.244,2.772,0.724c0.636,0.48,0.872,1.308,0.712,2.488
				c-0.08,0.832-0.42,1.464-1.02,1.888c-0.596,0.424-1.3,0.724-2.108,0.88c-0.804,0.164-1.628,0.236-2.464,0.228
				c-0.844-0.012-1.544-0.036-2.1-0.08c-1.248-0.064-2.4-0.032-3.46,0.088c-1.052,0.124-2.048,0.364-2.996,0.728
				c-0.94,0.364-1.844,0.86-2.712,1.5c-0.868,0.632-1.724,1.424-2.572,2.364c-0.34,0.396-0.7,0.78-1.08,1.156
				c-0.376,0.372-0.656,0.808-0.844,1.312c-0.252,0.64-0.284,1.3-0.108,1.968c0.176,0.672,0.56,1.2,1.144,1.596l9.08,6.068
				c0.964,0.648,1.968,0.964,2.996,0.96c1.04-0.004,2.088-0.168,3.148-0.492c0.544-0.148,0.972-0.444,1.28-0.884
				c0.308-0.436,0.504-0.904,0.584-1.404c0.076-0.5,0.032-1-0.132-1.496c-0.164-0.496-0.456-0.9-0.872-1.216
				c-0.576-0.456-1.14-0.644-1.696-0.556c-0.46,0.076-0.96,0.168-1.476,0.268c-0.668-0.2-1.352-0.492-2.076-0.908
				c-0.736-0.416-1.416-0.848-2.052-1.312c-0.628-0.456-1.2-0.896-1.716-1.312c-0.512-0.416-0.904-0.716-1.184-0.904
				c0.676-0.684,1.436-1.152,2.284-1.4C148.737,87.728,149.625,87.584,150.553,87.544z"/>
			<path d="M163.929,108.856c0.812,0.764,1.732,1.396,2.76,1.9c1.024,0.5,2.096,0.828,3.204,0.988
				c2.376,0.076,4.596-0.412,6.672-1.472c2.076-1.064,3.896-2.412,5.468-4.048c0.912-0.932,1.76-1.944,2.524-3.032
				c0.764-1.084,1.396-2.22,1.888-3.4s0.82-2.424,0.98-3.736c0.156-1.308,0.076-2.66-0.244-4.052
				c-0.324-1.392-0.86-2.636-1.616-3.728c-0.756-1.1-1.672-1.984-2.74-2.664c-1.076-0.684-2.272-1.14-3.584-1.372
				c-1.316-0.236-2.68-0.2-4.104,0.1c-1.756,0.372-3.396,1.08-4.916,2.124c-1.528,1.04-2.888,2.208-4.084,3.504
				c-1.708,1.84-3,3.808-3.872,5.912s-1.252,4.448-1.14,7.02c0.06,1.18,0.336,2.28,0.84,3.296
				C162.461,107.2,163.113,108.088,163.929,108.856z M166.773,99.604c0.216-0.736,0.476-1.412,0.768-2.02
				c0.436-0.924,1.096-1.964,1.98-3.12c0.88-1.164,1.888-2.18,3.012-3.068c1.128-0.884,2.32-1.476,3.588-1.772
				c1.26-0.292,2.508-0.036,3.724,0.78c1.12,0.752,1.784,1.672,1.988,2.768c0.208,1.096,0.14,2.228-0.188,3.408
				c-0.324,1.18-0.828,2.3-1.496,3.36c-0.676,1.056-1.344,1.92-2.008,2.576l-0.164,0.168c-0.696,0.708-1.432,1.352-2.196,1.924
				c-0.768,0.572-1.564,0.996-2.38,1.28c-0.812,0.284-1.656,0.4-2.524,0.356c-0.872-0.048-1.78-0.356-2.724-0.916
				c-0.68-0.416-1.152-0.932-1.42-1.556c-0.268-0.62-0.384-1.284-0.348-2C166.429,101.072,166.557,100.348,166.773,99.604z"/>
			<path d="M203.085,94.716c-1.132-0.736-2.436-1.12-3.916-1.16c-1.364-0.056-2.556,0.24-3.58,0.896
				c-1.028,0.66-1.968,1.452-2.82,2.396l-0.14,0.292c-0.68,1.46-1.056,2.956-1.124,4.492c-0.072,1.536,0.436,2.98,1.52,4.328
				c0.792,0.972,1.76,1.672,2.916,2.116c1.156,0.444,2.344,0.632,3.548,0.556c1.208-0.076,2.36-0.416,3.44-1.012
				c1.08-0.604,1.944-1.444,2.592-2.52c0.74-1.272,1.104-2.572,1.092-3.904c-0.008-1.332-0.32-2.56-0.932-3.688
				C205.081,96.384,204.209,95.452,203.085,94.716z M201.101,102.304c-0.5,0.696-1.068,1.104-1.708,1.228
				c-0.632,0.128-1.192,0.04-1.672-0.26c-0.48-0.304-0.816-0.784-1-1.444c-0.18-0.652-0.096-1.42,0.264-2.284
				c0.332-0.328,0.7-0.612,1.108-0.832c0.404-0.224,0.832-0.304,1.26-0.232c0.412,0.048,0.764,0.216,1.076,0.496
				c0.308,0.284,0.56,0.608,0.752,0.976c0.192,0.368,0.288,0.764,0.288,1.18C201.461,101.564,201.337,101.952,201.101,102.304z"/>
			<path d="M213.661,111.952c0.516-0.188,1.048-0.388,1.588-0.596c0.544-0.208,1.212-0.464,2.012-0.776
				c0.288-0.104,0.564-0.192,0.84-0.268c0.272-0.076,0.532-0.192,0.792-0.36c0.704-0.444,1.148-1,1.336-1.672
				c0.188-0.664,0.168-1.28-0.052-1.856c-0.228-0.572-0.62-1.028-1.184-1.368c-0.564-0.34-1.268-0.424-2.116-0.256
				c-4.492,1.704-8.92,3.42-13.284,5.132c-4.376,1.716-8.776,3.444-13.216,5.188c-0.7,0.272-1.4,0.552-2.104,0.828
				c-0.704,0.288-1.404,0.568-2.1,0.832c-0.492,0.188-1.092,0.404-1.788,0.652c-0.7,0.248-1.332,0.56-1.9,0.94
				c-0.56,0.376-0.968,0.84-1.208,1.396c-0.244,0.556-0.168,1.224,0.232,2.004c0.32,0.62,0.7,1.024,1.148,1.212
				s0.924,0.268,1.436,0.244c0.516-0.024,1.04-0.136,1.576-0.328c0.532-0.192,1.048-0.388,1.54-0.572
				c0.66-0.216,1.308-0.456,1.94-0.716c0.632-0.256,1.276-0.516,1.928-0.78c3.132-1.216,6.252-2.432,9.352-3.656
				c3.092-1.224,6.216-2.456,9.368-3.7c0.9-0.352,1.644-0.652,2.22-0.888C212.605,112.356,213.153,112.14,213.661,111.952z"/>
			<path d="M205.761,120.712c-1.244-0.648-2.636-0.936-4.192-0.868c-1.136,0.048-2.132,0.396-2.98,1.04
				c-0.86,0.644-1.636,1.356-2.344,2.132l-0.14,0.292c-0.612,1.248-0.972,2.588-1.084,4.02c-0.116,1.432,0.252,2.76,1.084,3.984
				c0.748,1.084,1.696,1.916,2.844,2.48c1.148,0.568,2.34,0.848,3.572,0.844c1.236,0,2.412-0.292,3.532-0.868
				c1.12-0.576,2.04-1.452,2.756-2.628c0.808-1.372,1.172-2.752,1.104-4.12c-0.076-1.372-0.476-2.608-1.2-3.7
				C207.989,122.232,207.005,121.364,205.761,120.712z M204.773,127.724c-0.1,0.56-0.412,1.068-0.936,1.528
				c-0.38,0.34-0.796,0.52-1.272,0.532c-0.472,0.016-0.888-0.088-1.256-0.312c-0.36-0.228-0.66-0.536-0.892-0.936
				c-0.232-0.392-0.312-0.84-0.232-1.34c-0.044-0.544,0.112-0.992,0.464-1.352c0.344-0.356,0.744-0.656,1.212-0.9
				c0.608-0.148,1.156-0.088,1.652,0.164c0.488,0.256,0.848,0.616,1.072,1.08C204.809,126.656,204.865,127.168,204.773,127.724z"/>
			<path d="M194.961,62.204l-21.368-13.996c-0.832-0.544-1.96-0.316-2.516,0.528c-0.552,0.836-0.316,1.964,0.524,2.516
				l21.368,13.996c0.304,0.2,0.648,0.296,0.992,0.296c0.592,0,1.168-0.292,1.52-0.824C196.037,63.884,195.801,62.756,194.961,62.204
				z"/>
			<path d="M212.509,174.136c-0.868-0.5-1.98-0.208-2.48,0.664l-19.696,34.104c-0.5,0.868-0.204,1.98,0.664,2.48
				c0.284,0.164,0.596,0.244,0.908,0.244c0.624,0,1.236-0.324,1.576-0.908l19.692-34.108
				C213.677,175.748,213.381,174.636,212.509,174.136z"/>
			<path d="M150.461,289.084c0.292,0.18,0.616,0.264,0.936,0.264c0.616,0,1.216-0.316,1.556-0.88l17.24-28.668
				c0.52-0.86,0.24-1.98-0.62-2.492c-0.848-0.516-1.976-0.244-2.492,0.62l-17.24,28.668
				C149.321,287.452,149.601,288.568,150.461,289.084z"/>
		</g>
	</g>
</g>
<g>
</g>
<g>
</g>
<g>
</g>
<g>
</g>
<g>
</g>
<g>
</g>
<g>
</g>
<g>
</g>
<g>
</g>
<g>
</g>
<g>
</g>
<g>
</g>
<g>
</g>
<g>
</g>
<g>
</g>
</svg>
