<?xml version="1.0" encoding="utf-8"?>
<!-- Generator: Adobe Illustrator 19.1.0, SVG Export Plug-In . SVG Version: 6.00 Build 0)  -->
<svg version="1.1" id="Layer_1" xmlns="http://www.w3.org/2000/svg" xmlns:xlink="http://www.w3.org/1999/xlink" x="0px" y="0px"
	 viewBox="0 0 64 64" enable-background="new 0 0 64 64" xml:space="preserve">
<g id="Globe_1_">
	<path d="M29.0555248,44.6431007c5.6504002,0,11.3016987-2.1766014,15.6028957-6.530201
		c1.763401-1.7848015,3.1450005-3.8065987,4.1855011-5.9561996c0.0074997-0.0073013,0.0175018-0.0094986,0.0247993-0.0167999
		c0.1752014-0.1772995,0.2602005-0.4062004,0.2750015-0.6382999c3.655098-8.2201004,2.1759987-18.2283001-4.485302-24.9712009
		c-8.6042938-8.7072001-22.6033955-8.7072001-31.2058945,0c-8.6034002,8.7077007-8.6034002,22.8753014,0,31.5825005
		C17.7547245,42.4664993,23.4051247,44.6431007,29.0555248,44.6431007z M13.6227245,35.3474007
		c0.1063004-0.1301003,0.1920004-0.2793999,0.2215004-0.4576988c0.8301001-5.0278015,2.2420998-9.3739014,4.2000999-13.0666027
		l12.4845009,12.634901c-3.6487007,1.9818001-7.9431,3.4106979-12.9110012,4.2509003
		c-0.1063004,0.0178986-0.1991997,0.0636978-0.2894993,0.1119003c-0.8682995-0.6325989-1.7088003-1.3213005-2.4893007-2.1110992
		C14.4066248,36.2720985,14.0074253,35.8137016,13.6227245,35.3474007z M19.0661259,20.0506001
		c2.1538982-3.4881992,4.8692989-6.3015003,8.1466999-8.4250002l13.3914986,13.553401
		c-2.0980988,3.3168983-4.8778,6.0649986-8.3242989,8.2449989L19.0661259,20.0506001z M19.6752243,40.3190002
		c4.6494007-0.9445992,8.7581005-2.4164009,12.2742004-4.4230995l5.0428009,5.1035995
		C31.4491253,43.4035988,25.0531254,43.1856003,19.6752243,40.3190002z M43.2719231,36.7097015
		c-1.3438988,1.3600998-2.8394966,2.4688988-4.4227982,3.3626976l-5.1847992-5.2473984
		c3.3843002-2.2228012,6.1755981-4.9709015,8.3278999-8.2413006l4.950695,5.0105991
		C46.0120239,33.4373016,44.7941208,35.1688004,43.2719231,36.7097015z M47.7954216,29.6504002l-4.7467995-4.8040009
		c1.9346008-3.4454002,3.2256012-7.4060001,3.8736-11.8421993C49.5543213,18.1832008,49.8408241,24.2682991,47.7954216,29.6504002z
		 M45.3503227,10.4426003c-0.0585022,0.1110001-0.0982018,0.2347994-0.111599,0.3682995
		c-0.4742012,4.7969999-1.6819,8.9979-3.5990982,12.6091995L28.9506245,10.5781002
		c3.5685024-1.9404001,7.7194004-3.1626,12.4589024-3.6426001C41.610424,6.9152002,41.7786255,6.8211999,41.9232254,6.7005
		c0.4617996,0.3898001,0.9154015,0.7947001,1.3486977,1.2332001C44.049221,8.7206001,44.7272224,9.5676003,45.3503227,10.4426003z
		 M29.0555248,1.984c3.7488995,0,7.4919987,1.0650001,10.7664013,3.1678998
		C35.2035255,5.776,31.0947247,7.1085,27.5416241,9.1520996L21.8144245,3.3555
		C24.1400242,2.4500999,26.5958252,1.984,29.0555248,1.984z M14.8390245,7.9337001
		c1.5224009-1.5409002,3.2335005-2.7733002,5.054801-3.7154999L25.8251247,10.2212
		c-3.2315006,2.1782999-5.9468002,5.0033998-8.1434002,8.4283991l-6.0723991-6.1456995
		c-0.0314007-0.0317993-0.0719004-0.0447998-0.1062002-0.0712996C12.3882246,10.8214998,13.488925,9.3001003,14.8390245,7.9337001z
		 M10.6002254,14.2889004l6.0233994,6.0963001c-2.0550995,3.6885986-3.5445995,8.0188999-4.4714003,12.9389992
		C8.5138254,27.6002998,8.0004253,20.4290009,10.6002254,14.2889004z"/>
	<path d="M57.0000267,23.3673c0-7.4071999-2.850605-14.3715-8.026001-19.6093998
		c-0.3829994-0.3875999-1.0035019-0.3875999-1.3865051,0c-0.3829994,0.3876002-0.3829994,1.0156,0,1.4031999
		c4.8049011,4.8634,7.4515038,11.3290997,7.4515038,18.2061996c0,6.8775997-2.6466026,13.3433018-7.4515038,18.2062016
		c-9.9199944,10.0387001-26.0591965,10.0387001-35.9781952,0c-0.3830004-0.3875999-1.0035-0.3875999-1.3865004,0
		s-0.3830004,1.0155983,0,1.4031982c5.1753998,5.2378998,12.0561991,8.1229019,19.3755989,8.1229019
		c0.3120003,0,0.6221008-0.0125999,0.9323997-0.0230026c-0.0000992,0.0082016-0.0046005,0.0147018-0.0046005,0.0230026v10.915699
		h-5.8829994c-0.5419998,0-0.9804993,0.4444008-0.9804993,0.9924011C23.6627254,63.5556984,24.1012249,64,24.6432247,64h13.7270985
		c0.5420036,0,0.9805031-0.4443016,0.9805031-0.9922981c0-0.5480003-0.4384995-0.9924011-0.9805031-0.9924011h-5.8829994v-10.915699
		c0-0.0538025-0.0220985-0.0998001-0.0301971-0.1512032c6.2384987-0.6504974,12.0213966-3.4217987,16.5168991-7.9716988
		C54.1494217,37.7388,57.0000267,30.7749996,57.0000267,23.3673z"/>
</g>
<g>
</g>
<g>
</g>
<g>
</g>
<g>
</g>
<g>
</g>
<g>
</g>
<g>
</g>
<g>
</g>
<g>
</g>
<g>
</g>
<g>
</g>
<g>
</g>
<g>
</g>
<g>
</g>
<g>
</g>
</svg>
