<?xml version="1.0" encoding="iso-8859-1"?>
<!-- Generator: Adobe Illustrator 17.1.0, SVG Export Plug-In . SVG Version: 6.00 Build 0)  -->
<!DOCTYPE svg PUBLIC "-//W3C//DTD SVG 1.1//EN" "http://www.w3.org/Graphics/SVG/1.1/DTD/svg11.dtd">
<svg version="1.1" id="Capa_1" xmlns="http://www.w3.org/2000/svg" xmlns:xlink="http://www.w3.org/1999/xlink" x="0px" y="0px"
	 viewBox="0 0 465 465" style="enable-background:new 0 0 465 465;" xml:space="preserve">
<g>
	<path d="M212.553,70.05c-4.142,0-7.5,3.357-7.5,7.5v18.18c0,4.143,3.358,7.5,7.5,7.5s7.5-3.357,7.5-7.5V77.55
		C220.053,73.407,216.695,70.05,212.553,70.05z"/>
	<path d="M252.447,70.05c-4.142,0-7.5,3.357-7.5,7.5v18.18c0,4.143,3.358,7.5,7.5,7.5s7.5-3.357,7.5-7.5V77.55
		C259.947,73.407,256.589,70.05,252.447,70.05z"/>
	<path d="M357.078,115.985c-0.126-0.001-0.251-0.001-0.378-0.001c-14.216,0-27.585,5.495-37.683,15.499
		c-0.312,0.309-0.618,0.619-0.921,0.935V87.144c0.158-23.134-8.616-44.924-24.705-61.354C277.262,9.316,255.655,0.158,232.551,0
		c-0.034,0-0.068,0-0.103,0c-23.104,0.158-44.71,9.316-60.84,25.789C155.52,42.22,146.746,64.01,146.904,87.093v45.325
		c-0.303-0.315-0.609-0.626-0.921-0.935c-10.187-10.093-23.697-15.582-38.061-15.498c-29.643,0.203-53.595,24.484-53.393,54.076
		v139.243c0,4.143,3.358,7.5,7.5,7.5s7.5-3.357,7.5-7.5v-8.934l30.944-29.202V457.5c0,4.143,3.358,7.5,7.5,7.5s7.5-3.357,7.5-7.5
		v-8.933l34.009-32.094l36.359,34.313c0.055,0.052,0.115,0.096,0.171,0.146c0.1,0.089,0.2,0.178,0.305,0.262
		c0.09,0.072,0.183,0.139,0.275,0.206c0.101,0.073,0.201,0.146,0.305,0.214c0.101,0.066,0.205,0.127,0.309,0.188
		c0.103,0.06,0.205,0.121,0.31,0.176c0.109,0.057,0.219,0.107,0.33,0.159c0.107,0.049,0.213,0.099,0.322,0.144
		c0.114,0.046,0.229,0.086,0.344,0.126c0.111,0.039,0.221,0.079,0.335,0.113c0.122,0.036,0.245,0.065,0.369,0.095
		c0.109,0.026,0.217,0.056,0.327,0.077c0.148,0.029,0.298,0.048,0.447,0.068c0.088,0.012,0.175,0.028,0.264,0.037
		c0.488,0.048,0.979,0.048,1.466,0c0.085-0.008,0.168-0.024,0.253-0.035c0.154-0.02,0.307-0.04,0.459-0.07
		c0.106-0.021,0.209-0.048,0.314-0.074c0.129-0.031,0.257-0.061,0.384-0.099c0.108-0.032,0.214-0.071,0.32-0.108
		c0.12-0.042,0.241-0.083,0.359-0.131c0.105-0.042,0.207-0.09,0.309-0.138c0.115-0.053,0.23-0.106,0.343-0.165
		c0.102-0.053,0.201-0.112,0.3-0.17c0.107-0.062,0.213-0.125,0.318-0.193c0.102-0.066,0.2-0.138,0.299-0.209
		c0.094-0.068,0.189-0.136,0.281-0.209c0.104-0.083,0.204-0.171,0.303-0.26c0.057-0.051,0.117-0.095,0.172-0.147l36.36-34.313
		l36.361,34.314c0.061,0.057,0.126,0.106,0.188,0.161c0.093,0.082,0.185,0.164,0.282,0.241c0.097,0.078,0.197,0.149,0.296,0.222
		c0.094,0.068,0.188,0.136,0.285,0.2c0.107,0.07,0.217,0.134,0.327,0.199c0.097,0.056,0.193,0.113,0.293,0.165
		c0.114,0.06,0.231,0.114,0.348,0.167c0.101,0.047,0.202,0.094,0.305,0.136c0.119,0.048,0.24,0.09,0.361,0.132
		c0.106,0.037,0.211,0.075,0.319,0.107c0.127,0.038,0.255,0.068,0.383,0.099c0.105,0.025,0.208,0.053,0.314,0.074
		c0.153,0.03,0.306,0.05,0.46,0.07c0.084,0.011,0.167,0.027,0.252,0.035c0.488,0.048,0.98,0.048,1.468,0
		c0.084-0.008,0.165-0.023,0.248-0.035c0.155-0.021,0.311-0.041,0.465-0.071c0.104-0.021,0.206-0.048,0.309-0.073
		c0.13-0.031,0.261-0.062,0.39-0.1c0.107-0.032,0.211-0.07,0.315-0.106c0.122-0.042,0.243-0.084,0.363-0.133
		c0.104-0.042,0.205-0.09,0.306-0.136c0.116-0.053,0.232-0.107,0.345-0.167c0.101-0.053,0.199-0.11,0.297-0.168
		c0.108-0.063,0.216-0.126,0.321-0.195c0.101-0.066,0.198-0.137,0.296-0.207c0.095-0.069,0.19-0.138,0.283-0.211
		c0.104-0.083,0.203-0.171,0.302-0.259c0.057-0.05,0.117-0.095,0.172-0.147l36.361-34.313l34.005,32.087v8.94
		c0,4.143,3.358,7.5,7.5,7.5s7.5-3.357,7.5-7.5v-12.134c0-0.104,0.004-0.208,0-0.313V271.169l30.952,29.209v8.927
		c0,4.143,3.358,7.5,7.5,7.5s7.5-3.357,7.5-7.5V170.112C410.672,140.47,386.721,116.188,357.078,115.985z M362.166,248.324
		c-2.178-2.057-5.37-2.621-8.118-1.433c-2.749,1.186-4.53,3.893-4.53,6.887v174.157l-28.859-27.23
		c-2.89-2.727-7.405-2.728-10.294,0.001l-28.86,27.236V299.5c0-4.143-3.358-7.5-7.5-7.5s-7.5,3.357-7.5,7.5v128.442l-28.861-27.237
		c-2.89-2.727-7.405-2.728-10.295,0.001l-28.86,27.235V359.5c0-4.143-3.358-7.5-7.5-7.5s-7.5,3.357-7.5,7.5v68.441l-28.859-27.235
		c-2.889-2.729-7.405-2.728-10.295-0.001l-28.861,27.236V253.778c0-2.994-1.781-5.701-4.53-6.887
		c-2.748-1.187-5.94-0.624-8.118,1.433L69.53,279.747V170.011c-0.146-21.373,17.123-38.879,38.495-39.025
		c10.319-0.088,20.069,3.891,27.401,11.153c7.331,7.264,11.407,16.974,11.478,27.342c0.028,4.124,3.379,7.449,7.5,7.449
		c0.009,0,0.018,0,0.026,0c4.132-0.014,7.475-3.368,7.475-7.5V87.042c-0.131-19.149,7.122-37.176,20.423-50.759
		C195.626,22.701,213.443,15.144,232.5,15c19.057,0.144,36.874,7.701,50.173,21.283c13.301,13.583,20.554,31.609,20.423,50.81
		v82.337c0,4.132,3.342,7.486,7.475,7.5c0.009,0,0.017,0,0.026,0c4.12,0,7.471-3.325,7.5-7.449
		c0.071-10.368,4.147-20.078,11.478-27.342c7.268-7.199,16.892-11.154,27.129-11.154c0.09,0,0.182,0,0.272,0.001
		c21.372,0.146,38.641,17.652,38.495,39.076v109.693L362.166,248.324z"/>
	<path d="M190.989,292c-4.142,0-7.5,3.357-7.5,7.5v30c0,4.143,3.358,7.5,7.5,7.5s7.5-3.357,7.5-7.5v-30
		C198.489,295.357,195.131,292,190.989,292z"/>
</g>
<g>
</g>
<g>
</g>
<g>
</g>
<g>
</g>
<g>
</g>
<g>
</g>
<g>
</g>
<g>
</g>
<g>
</g>
<g>
</g>
<g>
</g>
<g>
</g>
<g>
</g>
<g>
</g>
<g>
</g>
</svg>
